<svg width="50" height="50" viewBox="0 0 50 50" fill="none" xmlns="http://www.w3.org/2000/svg">
<g clip-path="url(#clip0_376_5)">
<path fill-rule="evenodd" clip-rule="evenodd" d="M25 29.4209L36.0479 40.4689C36.6341 41.0551 37.4292 41.3844 38.2583 41.3844C39.0874 41.3844 39.8825 41.0551 40.4687 40.4689C41.0549 39.8826 41.3843 39.0875 41.3843 38.2584C41.3843 37.4294 41.0549 36.6343 40.4687 36.048L29.4166 25.0001L40.4666 13.9522C40.7568 13.6619 40.9869 13.3173 41.1438 12.9381C41.3008 12.5589 41.3816 12.1525 41.3815 11.7421C41.3814 11.3317 41.3004 10.9253 41.1433 10.5461C40.9861 10.167 40.7559 9.82254 40.4656 9.5324C40.1753 9.24226 39.8307 9.01214 39.4515 8.85517C39.0723 8.6982 38.6659 8.61745 38.2555 8.61755C37.845 8.61765 37.4387 8.69858 37.0595 8.85573C36.6804 9.01288 36.3359 9.24317 36.0458 9.53344L25 20.5814L13.952 9.53344C13.6639 9.23484 13.3192 8.99661 12.938 8.83265C12.5568 8.6687 12.1468 8.5823 11.7319 8.5785C11.3169 8.5747 10.9054 8.65357 10.5213 8.81052C10.1372 8.96747 9.78813 9.19934 9.49458 9.49262C9.20103 9.78589 8.96882 10.1347 8.81151 10.5187C8.65421 10.9026 8.57494 11.3141 8.57835 11.729C8.58176 12.144 8.66777 12.5541 8.83137 12.9354C8.99496 13.3168 9.23287 13.6617 9.5312 13.9501L20.5833 25.0001L9.53328 36.0501C9.23495 36.3385 8.99705 36.6835 8.83345 37.0648C8.66986 37.4461 8.58384 37.8562 8.58044 38.2712C8.57703 38.6861 8.65629 39.0976 8.8136 39.4815C8.97091 39.8655 9.20311 40.2143 9.49666 40.5076C9.79022 40.8009 10.1392 41.0327 10.5234 41.1897C10.9075 41.3466 11.319 41.4255 11.7339 41.4217C12.1489 41.4179 12.5589 41.3315 12.9401 41.1676C13.3213 41.0036 13.666 40.7654 13.9541 40.4668L25 29.4209Z" fill="#F8F8F8"/>
</g>
<defs>
<clipPath id="clip0_376_5">
<rect width="50" height="50" fill="white"/>
</clipPath>
</defs>
</svg>
