<svg width="79" height="79" viewBox="0 0 79 79" fill="none" xmlns="http://www.w3.org/2000/svg">
<path d="M39.6928 8.82397C56.8005 8.82397 70.7323 22.7491 70.7323 39.8814C70.7323 56.9779 56.8005 70.903 39.6928 70.903C22.5851 70.903 8.65332 56.9779 8.65332 39.8814C8.65332 22.7491 22.5851 8.82397 39.6928 8.82397ZM36.1574 27.5405C35.4983 27.5405 34.8691 27.6902 34.2699 27.9897C33.5209 28.409 32.9216 29.0678 32.5921 29.8464C32.3824 30.3854 32.0528 32.0025 32.0528 32.0325C31.7232 33.7993 31.5434 36.6742 31.5434 39.8485C31.5434 42.8761 31.7232 45.6282 31.9929 47.4249C32.0228 47.4549 32.3524 49.4613 32.7119 50.1501C33.3711 51.4078 34.6594 52.1864 36.0376 52.1864H36.1574C37.0563 52.1565 38.9438 51.3779 38.9438 51.3479C42.1196 50.0303 48.3815 45.9276 50.8982 43.2025L51.078 43.0228C51.4075 42.6934 51.827 42.1843 51.9169 42.0645C52.3962 41.4357 52.6359 40.657 52.6359 39.8814C52.6359 39.01 52.3663 38.2014 51.8569 37.5426C51.7371 37.4228 51.2877 36.9137 50.8682 36.4945C48.4114 33.8592 41.9998 29.5469 38.6442 28.2293C38.1348 28.0226 36.8465 27.5704 36.1574 27.5405Z" fill="url(#paint0_linear_30_64)"/>
<path d="M78.757 39.6237C78.757 61.0663 61.267 78.4489 39.6921 78.4489C18.1171 78.4489 0.627197 61.0663 0.627197 39.6237C0.627197 18.1811 18.1171 0.798462 39.6921 0.798462C61.267 0.798462 78.757 18.1811 78.757 39.6237Z" fill="#FF6060" fill-opacity="0.12"/>
<defs>
<linearGradient id="paint0_linear_30_64" x1="61.4099" y1="-2.55717" x2="8.38254" y2="11.5027" gradientUnits="userSpaceOnUse">
<stop stop-color="#FF5050"/>
<stop offset="1" stop-color="#FD7E14"/>
</linearGradient>
</defs>
</svg>
