<svg width="34" height="35" viewBox="0 0 34 35" fill="none" xmlns="http://www.w3.org/2000/svg">
<g opacity="0.3">
<path d="M16.9119 13.1878C15.7906 13.1878 14.7153 13.6333 13.9224 14.4261C13.1296 15.219 12.6841 16.2943 12.6841 17.4156C12.6841 18.5369 13.1296 19.6122 13.9224 20.4051C14.7153 21.1979 15.7906 21.6433 16.9119 21.6433C18.0332 21.6433 19.1085 21.1979 19.9014 20.4051C20.6942 19.6122 21.1396 18.5369 21.1396 17.4156C21.1396 16.2943 20.6942 15.219 19.9014 14.4261C19.1085 13.6333 18.0332 13.1878 16.9119 13.1878ZM16.9119 24.4618C15.0431 24.4618 13.2509 23.7195 11.9294 22.398C10.608 21.0766 9.86565 19.2844 9.86565 17.4156C9.86565 15.5468 10.608 13.7546 11.9294 12.4331C13.2509 11.1117 15.0431 10.3693 16.9119 10.3693C18.7807 10.3693 20.5729 11.1117 21.8943 12.4331C23.2158 13.7546 23.9581 15.5468 23.9581 17.4156C23.9581 19.2844 23.2158 21.0766 21.8943 22.398C20.5729 23.7195 18.7807 24.4618 16.9119 24.4618ZM16.9119 6.84622C9.86565 6.84622 3.84816 11.229 1.41016 17.4156C3.84816 23.6022 9.86565 27.985 16.9119 27.985C23.9581 27.985 29.9756 23.6022 32.4136 17.4156C29.9756 11.229 23.9581 6.84622 16.9119 6.84622Z" fill="#060925"/>
</g>
</svg>
