<svg width="55" height="41" viewBox="0 0 55 41" fill="none" xmlns="http://www.w3.org/2000/svg">
<path fill-rule="evenodd" clip-rule="evenodd" d="M15.0465 0H11.3024H1.00002H0.947388C0.969602 0.129651 0.987203 0.260877 1.00002 0.393504V16H11.3024V9.604H12.9712C18.7242 9.604 23.3879 14.2677 23.3879 20.0207C23.3879 25.7737 18.7242 30.4374 12.9712 30.4374H11.3024V23H1.00002V40H1.02532V40.0412H15.0466C26.1036 40.0412 35.0671 31.0777 35.0671 20.0206C35.0671 8.96353 26.1036 0 15.0465 0Z" fill="white"/>
<path fill-rule="evenodd" clip-rule="evenodd" d="M49.9467 0H38.3414C27.2843 0 18.3208 8.96353 18.3208 20.0206C18.3208 31.0777 27.2843 40.0412 38.3414 40.0412H54.5935L54.5878 40.0192L55 40.0415L50.4449 22.6688C49.3 18.3023 45.2198 15.437 40.8615 15.6568C40.8084 15.6538 40.7549 15.6523 40.701 15.6523H38.3531C36.2881 15.6523 34.6141 17.3263 34.6141 19.3913C34.6141 21.4563 36.2881 23.1303 38.3531 23.1303H40.701C40.86 23.1303 41.0161 23.1173 41.1681 23.0924L43.2734 30.4374H39.6291C33.8762 30.4374 29.2125 25.7737 29.2125 20.0207C29.2125 14.2677 33.8762 9.604 39.6292 9.604H48.214L49.9467 0Z" fill="url(#paint0_linear_43_3)"/>
<defs>
<linearGradient id="paint0_linear_43_3" x1="49.4919" y1="-7.34094" x2="17.8262" y2="0.350033" gradientUnits="userSpaceOnUse">
<stop stop-color="#FF5050"/>
<stop offset="1" stop-color="#FD7E14"/>
</linearGradient>
</defs>
</svg>
